<mxfile host="Electron" agent="Mozilla/5.0 (Windows NT 10.0; Win64; x64) AppleWebKit/537.36 (KHTML, like Gecko) draw.io/26.0.16 Chrome/132.0.6834.196 Electron/34.2.0 Safari/537.36" version="26.0.16">
  <diagram name="Page-1" id="90a13364-a465-7bf4-72fc-28e22215d7a0">
    <mxGraphModel dx="2074" dy="1196" grid="1" gridSize="10" guides="1" tooltips="1" connect="1" arrows="1" fold="1" page="1" pageScale="1.5" pageWidth="1169" pageHeight="826" background="none" math="0" shadow="0">
      <root>
        <mxCell id="0" style=";html=1;" />
        <mxCell id="1" style=";html=1;" parent="0" />
        <mxCell id="3a17f1ce550125da-1" value="UIA&lt;div&gt;MotionLab&lt;/div&gt;&lt;div&gt;UDP Communication&lt;/div&gt;" style="whiteSpace=wrap;html=1;shadow=1;fontSize=20;fillColor=#f5f5f5;strokeColor=#666666;strokeWidth=2;dashed=1;" parent="1" vertex="1">
          <mxGeometry x="910" y="360" width="210" height="80" as="geometry" />
        </mxCell>
        <mxCell id="3a17f1ce550125da-13" style="edgeStyle=elbowEdgeStyle;rounded=0;html=1;startArrow=classic;startFill=1;jettySize=auto;orthogonalLoop=1;fontSize=18;elbow=vertical;exitX=0.002;exitY=0.76;exitDx=0;exitDy=0;exitPerimeter=0;" parent="1" source="pHWl1HnU7B_p60uPH-6Q-6" target="3a17f1ce550125da-4" edge="1">
          <mxGeometry relative="1" as="geometry">
            <mxPoint x="740" y="840" as="sourcePoint" />
            <Array as="points">
              <mxPoint x="670" y="840" />
            </Array>
          </mxGeometry>
        </mxCell>
        <mxCell id="3a17f1ce550125da-4" value="Comau Robot&lt;div&gt;Linux PC&lt;/div&gt;" style="whiteSpace=wrap;html=1;shadow=1;fontSize=18;fillColor=#f5f5f5;strokeColor=#666666;" parent="1" vertex="1">
          <mxGeometry x="410" y="790" width="183" height="100" as="geometry" />
        </mxCell>
        <mxCell id="3a17f1ce550125da-8" value="Motion PC&lt;div&gt;Stewart Platform&lt;/div&gt;&lt;div&gt;EM-8000&lt;/div&gt;" style="whiteSpace=wrap;html=1;shadow=1;fontSize=18;fillColor=#f5f5f5;strokeColor=#666666;" parent="1" vertex="1">
          <mxGeometry x="417" y="460" width="183" height="100" as="geometry" />
        </mxCell>
        <mxCell id="pHWl1HnU7B_p60uPH-6Q-6" value="UDP&amp;nbsp; &amp;nbsp; &amp;nbsp; &amp;nbsp; &amp;nbsp; &amp;nbsp; &amp;nbsp; &amp;nbsp; &amp;nbsp; &amp;nbsp; &amp;nbsp; &amp;nbsp; &amp;nbsp; &amp;nbsp; &amp;nbsp; &amp;nbsp; &amp;nbsp; &amp;nbsp; &amp;nbsp; &amp;nbsp; &amp;nbsp; &amp;nbsp; &amp;nbsp; &amp;nbsp; &amp;nbsp; &amp;nbsp; &amp;nbsp; &amp;nbsp; &amp;nbsp; &amp;nbsp; &amp;nbsp; &amp;nbsp; &amp;nbsp;UDP" style="whiteSpace=wrap;html=1;align=right;" vertex="1" parent="1">
          <mxGeometry x="742" y="460" width="278" height="500" as="geometry" />
        </mxCell>
        <mxCell id="pHWl1HnU7B_p60uPH-6Q-8" value="MRU 1&lt;br&gt;&lt;div&gt;EM-8000&lt;/div&gt;" style="whiteSpace=wrap;html=1;shadow=1;fontSize=18;fillColor=#f5f5f5;strokeColor=#666666;" vertex="1" parent="1">
          <mxGeometry x="453.5" y="560" width="110" height="56" as="geometry" />
        </mxCell>
        <mxCell id="pHWl1HnU7B_p60uPH-6Q-10" style="edgeStyle=orthogonalEdgeStyle;rounded=0;orthogonalLoop=1;jettySize=auto;html=1;exitX=1;exitY=0.5;exitDx=0;exitDy=0;entryX=0.002;entryY=0.256;entryDx=0;entryDy=0;entryPerimeter=0;" edge="1" parent="1" source="pHWl1HnU7B_p60uPH-6Q-8" target="pHWl1HnU7B_p60uPH-6Q-6">
          <mxGeometry relative="1" as="geometry">
            <mxPoint x="740" y="587.9999999999999" as="targetPoint" />
          </mxGeometry>
        </mxCell>
        <mxCell id="pHWl1HnU7B_p60uPH-6Q-14" value="Motion PC&lt;div&gt;Stewart Platform&lt;/div&gt;&lt;div&gt;EM-1500&lt;/div&gt;" style="whiteSpace=wrap;html=1;shadow=1;fontSize=18;fillColor=#f5f5f5;strokeColor=#666666;" vertex="1" parent="1">
          <mxGeometry x="417" y="620" width="183" height="100" as="geometry" />
        </mxCell>
        <mxCell id="pHWl1HnU7B_p60uPH-6Q-15" value="MRU 2&lt;br&gt;&lt;div&gt;EM-1500&lt;/div&gt;" style="whiteSpace=wrap;html=1;shadow=1;fontSize=18;fillColor=#f5f5f5;strokeColor=#666666;" vertex="1" parent="1">
          <mxGeometry x="453.5" y="720" width="110" height="56" as="geometry" />
        </mxCell>
        <mxCell id="pHWl1HnU7B_p60uPH-6Q-16" style="edgeStyle=orthogonalEdgeStyle;rounded=0;orthogonalLoop=1;jettySize=auto;html=1;exitX=1;exitY=0.5;exitDx=0;exitDy=0;entryX=0.004;entryY=0.576;entryDx=0;entryDy=0;entryPerimeter=0;" edge="1" parent="1" target="pHWl1HnU7B_p60uPH-6Q-6">
          <mxGeometry relative="1" as="geometry">
            <mxPoint x="564" y="747.71" as="sourcePoint" />
            <mxPoint x="740" y="747.7099999999999" as="targetPoint" />
          </mxGeometry>
        </mxCell>
        <mxCell id="pHWl1HnU7B_p60uPH-6Q-17" style="edgeStyle=elbowEdgeStyle;rounded=0;html=1;startArrow=classic;startFill=1;jettySize=auto;orthogonalLoop=1;fontSize=18;elbow=vertical;entryX=0.002;entryY=0.42;entryDx=0;entryDy=0;entryPerimeter=0;" edge="1" parent="1" target="pHWl1HnU7B_p60uPH-6Q-6">
          <mxGeometry relative="1" as="geometry">
            <Array as="points">
              <mxPoint x="730" y="669.71" />
              <mxPoint x="720" y="689.71" />
              <mxPoint x="710" y="686.71" />
              <mxPoint x="757" y="673.71" />
            </Array>
            <mxPoint x="600" y="669.71" as="sourcePoint" />
            <mxPoint x="740" y="669.71" as="targetPoint" />
          </mxGeometry>
        </mxCell>
        <mxCell id="pHWl1HnU7B_p60uPH-6Q-18" value="TxUDP: Remote to PLC" style="swimlane;fontStyle=0;childLayout=stackLayout;horizontal=1;startSize=30;horizontalStack=0;resizeParent=1;resizeParentMax=0;resizeLast=0;collapsible=1;marginBottom=0;whiteSpace=wrap;html=1;" vertex="1" parent="1">
          <mxGeometry x="1060" y="460" width="180" height="170" as="geometry" />
        </mxCell>
        <mxCell id="pHWl1HnU7B_p60uPH-6Q-19" value="EM8000 position commands" style="text;strokeColor=none;fillColor=none;align=left;verticalAlign=middle;spacingLeft=4;spacingRight=4;overflow=hidden;points=[[0,0.5],[1,0.5]];portConstraint=eastwest;rotatable=0;whiteSpace=wrap;html=1;" vertex="1" parent="pHWl1HnU7B_p60uPH-6Q-18">
          <mxGeometry y="30" width="180" height="30" as="geometry" />
        </mxCell>
        <mxCell id="pHWl1HnU7B_p60uPH-6Q-20" value="EM1500 position commands" style="text;strokeColor=none;fillColor=none;align=left;verticalAlign=middle;spacingLeft=4;spacingRight=4;overflow=hidden;points=[[0,0.5],[1,0.5]];portConstraint=eastwest;rotatable=0;whiteSpace=wrap;html=1;" vertex="1" parent="pHWl1HnU7B_p60uPH-6Q-18">
          <mxGeometry y="60" width="180" height="30" as="geometry" />
        </mxCell>
        <mxCell id="pHWl1HnU7B_p60uPH-6Q-21" value="Comau joint velocity commands" style="text;strokeColor=none;fillColor=none;align=left;verticalAlign=middle;spacingLeft=4;spacingRight=4;overflow=hidden;points=[[0,0.5],[1,0.5]];portConstraint=eastwest;rotatable=0;whiteSpace=wrap;html=1;" vertex="1" parent="pHWl1HnU7B_p60uPH-6Q-18">
          <mxGeometry y="90" width="180" height="40" as="geometry" />
        </mxCell>
        <mxCell id="pHWl1HnU7B_p60uPH-6Q-33" value="Comau Winch commands" style="text;strokeColor=none;fillColor=none;align=left;verticalAlign=middle;spacingLeft=4;spacingRight=4;overflow=hidden;points=[[0,0.5],[1,0.5]];portConstraint=eastwest;rotatable=0;whiteSpace=wrap;html=1;" vertex="1" parent="pHWl1HnU7B_p60uPH-6Q-18">
          <mxGeometry y="130" width="180" height="40" as="geometry" />
        </mxCell>
        <mxCell id="pHWl1HnU7B_p60uPH-6Q-22" value="RxUDP: PLC to remote" style="swimlane;fontStyle=0;childLayout=stackLayout;horizontal=1;startSize=30;horizontalStack=0;resizeParent=1;resizeParentMax=0;resizeLast=0;collapsible=1;marginBottom=0;whiteSpace=wrap;html=1;" vertex="1" parent="1">
          <mxGeometry x="1060" y="715" width="180" height="250" as="geometry">
            <mxRectangle x="1120" y="840" width="160" height="30" as="alternateBounds" />
          </mxGeometry>
        </mxCell>
        <mxCell id="pHWl1HnU7B_p60uPH-6Q-23" value="EM8000 position feedback" style="text;strokeColor=none;fillColor=none;align=left;verticalAlign=middle;spacingLeft=4;spacingRight=4;overflow=hidden;points=[[0,0.5],[1,0.5]];portConstraint=eastwest;rotatable=0;whiteSpace=wrap;html=1;" vertex="1" parent="pHWl1HnU7B_p60uPH-6Q-22">
          <mxGeometry y="30" width="180" height="30" as="geometry" />
        </mxCell>
        <mxCell id="pHWl1HnU7B_p60uPH-6Q-24" value="EM1500 position feedback" style="text;strokeColor=none;fillColor=none;align=left;verticalAlign=middle;spacingLeft=4;spacingRight=4;overflow=hidden;points=[[0,0.5],[1,0.5]];portConstraint=eastwest;rotatable=0;whiteSpace=wrap;html=1;" vertex="1" parent="pHWl1HnU7B_p60uPH-6Q-22">
          <mxGeometry y="60" width="180" height="30" as="geometry" />
        </mxCell>
        <mxCell id="pHWl1HnU7B_p60uPH-6Q-25" value="Comau joint feedback" style="text;strokeColor=none;fillColor=none;align=left;verticalAlign=middle;spacingLeft=4;spacingRight=4;overflow=hidden;points=[[0,0.5],[1,0.5]];portConstraint=eastwest;rotatable=0;whiteSpace=wrap;html=1;" vertex="1" parent="pHWl1HnU7B_p60uPH-6Q-22">
          <mxGeometry y="90" width="180" height="40" as="geometry" />
        </mxCell>
        <mxCell id="pHWl1HnU7B_p60uPH-6Q-32" value="Comau winch feedback" style="text;strokeColor=none;fillColor=none;align=left;verticalAlign=middle;spacingLeft=4;spacingRight=4;overflow=hidden;points=[[0,0.5],[1,0.5]];portConstraint=eastwest;rotatable=0;whiteSpace=wrap;html=1;" vertex="1" parent="pHWl1HnU7B_p60uPH-6Q-22">
          <mxGeometry y="130" width="180" height="40" as="geometry" />
        </mxCell>
        <mxCell id="pHWl1HnU7B_p60uPH-6Q-36" value="MRU 1 data" style="text;strokeColor=none;fillColor=none;align=left;verticalAlign=middle;spacingLeft=4;spacingRight=4;overflow=hidden;points=[[0,0.5],[1,0.5]];portConstraint=eastwest;rotatable=0;whiteSpace=wrap;html=1;" vertex="1" parent="pHWl1HnU7B_p60uPH-6Q-22">
          <mxGeometry y="170" width="180" height="40" as="geometry" />
        </mxCell>
        <mxCell id="pHWl1HnU7B_p60uPH-6Q-35" value="MRU 2 data" style="text;strokeColor=none;fillColor=none;align=left;verticalAlign=middle;spacingLeft=4;spacingRight=4;overflow=hidden;points=[[0,0.5],[1,0.5]];portConstraint=eastwest;rotatable=0;whiteSpace=wrap;html=1;" vertex="1" parent="pHWl1HnU7B_p60uPH-6Q-22">
          <mxGeometry y="210" width="180" height="40" as="geometry" />
        </mxCell>
        <mxCell id="3a17f1ce550125da-2" value="MotionLab PLC&lt;div&gt;Beckhoff CX2040&lt;/div&gt;" style="whiteSpace=wrap;html=1;shadow=1;fontSize=18;fillColor=#f5f5f5;strokeColor=#666666;" parent="1" vertex="1">
          <mxGeometry x="794.5" y="460" width="173" height="500" as="geometry" />
        </mxCell>
        <mxCell id="pHWl1HnU7B_p60uPH-6Q-41" style="edgeStyle=orthogonalEdgeStyle;rounded=0;orthogonalLoop=1;jettySize=auto;html=1;exitX=1;exitY=0.5;exitDx=0;exitDy=0;entryX=0.001;entryY=0.101;entryDx=0;entryDy=0;entryPerimeter=0;startArrow=classic;startFill=1;" edge="1" parent="1" source="3a17f1ce550125da-8" target="pHWl1HnU7B_p60uPH-6Q-6">
          <mxGeometry relative="1" as="geometry">
            <mxPoint x="730" y="510" as="targetPoint" />
          </mxGeometry>
        </mxCell>
        <mxCell id="pHWl1HnU7B_p60uPH-6Q-42" value="" style="endArrow=classic;startArrow=none;html=1;rounded=0;entryX=0.005;entryY=0.061;entryDx=0;entryDy=0;entryPerimeter=0;exitX=1;exitY=0.54;exitDx=0;exitDy=0;exitPerimeter=0;startFill=0;" edge="1" parent="1" source="pHWl1HnU7B_p60uPH-6Q-6" target="pHWl1HnU7B_p60uPH-6Q-22">
          <mxGeometry width="50" height="50" relative="1" as="geometry">
            <mxPoint x="1050" y="760" as="sourcePoint" />
            <mxPoint x="1100" y="710" as="targetPoint" />
          </mxGeometry>
        </mxCell>
        <mxCell id="pHWl1HnU7B_p60uPH-6Q-43" value="Qualisys Camera system" style="whiteSpace=wrap;html=1;shadow=1;fontSize=18;fillColor=#f5f5f5;strokeColor=#666666;" vertex="1" parent="1">
          <mxGeometry x="410" y="900" width="180" height="60" as="geometry" />
        </mxCell>
        <mxCell id="pHWl1HnU7B_p60uPH-6Q-45" value="" style="endArrow=classic;startArrow=none;html=1;rounded=0;entryX=1.001;entryY=0.034;entryDx=0;entryDy=0;entryPerimeter=0;startFill=0;exitX=-0.003;exitY=0.1;exitDx=0;exitDy=0;exitPerimeter=0;" edge="1" parent="1" source="pHWl1HnU7B_p60uPH-6Q-18" target="pHWl1HnU7B_p60uPH-6Q-6">
          <mxGeometry width="50" height="50" relative="1" as="geometry">
            <mxPoint x="1099" y="480" as="sourcePoint" />
            <mxPoint x="1111" y="740" as="targetPoint" />
            <Array as="points" />
          </mxGeometry>
        </mxCell>
        <mxCell id="pHWl1HnU7B_p60uPH-6Q-46" value="Speed Goat&lt;div&gt;RealTime unit&lt;/div&gt;&lt;div&gt;&lt;br&gt;&lt;/div&gt;&lt;div&gt;-Robot controll&lt;/div&gt;&lt;div&gt;&lt;span&gt;algorithm&lt;/span&gt;&lt;/div&gt;" style="whiteSpace=wrap;html=1;shadow=1;fontSize=18;fillColor=#f5f5f5;strokeColor=#666666;align=center;" vertex="1" parent="1">
          <mxGeometry x="1310" y="460" width="160" height="220" as="geometry" />
        </mxCell>
        <mxCell id="pHWl1HnU7B_p60uPH-6Q-47" value="Workstation PC&lt;div&gt;&lt;br&gt;&lt;div&gt;-SpeedGoat HMI&lt;br&gt;&lt;div&gt;-Simscape multibody&amp;nbsp;&lt;/div&gt;&lt;div&gt;Visualization&amp;nbsp;&lt;/div&gt;&lt;/div&gt;&lt;/div&gt;" style="whiteSpace=wrap;html=1;shadow=1;fontSize=18;fillColor=#f5f5f5;strokeColor=#666666;" vertex="1" parent="1">
          <mxGeometry x="1310" y="740" width="160" height="225" as="geometry" />
        </mxCell>
        <mxCell id="pHWl1HnU7B_p60uPH-6Q-48" value="" style="endArrow=none;startArrow=classic;html=1;rounded=0;entryX=0;entryY=0.048;entryDx=0;entryDy=0;entryPerimeter=0;exitX=1;exitY=0.54;exitDx=0;exitDy=0;exitPerimeter=0;startFill=1;" edge="1" parent="1" target="pHWl1HnU7B_p60uPH-6Q-46">
          <mxGeometry width="50" height="50" relative="1" as="geometry">
            <mxPoint x="1240" y="470" as="sourcePoint" />
            <mxPoint x="1281" y="470" as="targetPoint" />
          </mxGeometry>
        </mxCell>
        <mxCell id="pHWl1HnU7B_p60uPH-6Q-49" value="" style="endArrow=classic;startArrow=classic;html=1;rounded=0;startFill=1;entryX=0.5;entryY=0;entryDx=0;entryDy=0;endFill=1;" edge="1" parent="1" target="pHWl1HnU7B_p60uPH-6Q-47">
          <mxGeometry width="50" height="50" relative="1" as="geometry">
            <mxPoint x="1389.71" y="680" as="sourcePoint" />
            <mxPoint x="1389.71" y="730" as="targetPoint" />
          </mxGeometry>
        </mxCell>
        <mxCell id="pHWl1HnU7B_p60uPH-6Q-50" value="" style="endArrow=classic;startArrow=none;html=1;rounded=0;entryX=0;entryY=0.727;entryDx=0;entryDy=0;entryPerimeter=0;exitX=1;exitY=0.54;exitDx=0;exitDy=0;exitPerimeter=0;startFill=0;" edge="1" parent="1" target="pHWl1HnU7B_p60uPH-6Q-46">
          <mxGeometry width="50" height="50" relative="1" as="geometry">
            <mxPoint x="1240" y="720" as="sourcePoint" />
            <mxPoint x="1281" y="720" as="targetPoint" />
            <Array as="points">
              <mxPoint x="1270" y="720" />
              <mxPoint x="1270" y="620" />
            </Array>
          </mxGeometry>
        </mxCell>
        <mxCell id="pHWl1HnU7B_p60uPH-6Q-52" value="" style="endArrow=classic;startArrow=none;html=1;rounded=0;entryX=0;entryY=0.133;entryDx=0;entryDy=0;entryPerimeter=0;exitX=1;exitY=0.084;exitDx=0;exitDy=0;exitPerimeter=0;startFill=0;" edge="1" parent="1" source="pHWl1HnU7B_p60uPH-6Q-22" target="pHWl1HnU7B_p60uPH-6Q-47">
          <mxGeometry width="50" height="50" relative="1" as="geometry">
            <mxPoint x="1250" y="730" as="sourcePoint" />
            <mxPoint x="1320" y="630" as="targetPoint" />
            <Array as="points">
              <mxPoint x="1270" y="736" />
              <mxPoint x="1270" y="760" />
              <mxPoint x="1270" y="770" />
            </Array>
          </mxGeometry>
        </mxCell>
      </root>
    </mxGraphModel>
  </diagram>
</mxfile>
